<?xml version="1.0" encoding="UTF-8"?>
<svg id="Layer_1" data-name="Layer 1" xmlns="http://www.w3.org/2000/svg" viewBox="0 0 406.43 145">
  <defs>
    <style>
      .cls-1 {
        stroke: #000;
        stroke-miterlimit: 10;
      }
    </style>
  </defs>
  <path class="cls-1" d="M333.93.5c-28.98,0-53.94,17.13-65.36,41.8C257.15,17.63,232.19.5,203.22.5s-53.94,17.13-65.36,41.8C126.44,17.63,101.48.5,72.5.5,32.74.5.5,32.74.5,72.5s32.24,72,72,72c28.98,0,53.94-17.13,65.36-41.8,11.42,24.67,36.38,41.8,65.36,41.8s53.94-17.13,65.36-41.8c11.42,24.67,36.38,41.8,65.36,41.8,39.76,0,72-32.24,72-72S373.7.5,333.93.5Z"/>
</svg>